{
.appVersion = "964";
copyright = "Copyright 2017 Google Inc. All Rights Reserved.";
customParameters = (
{
name = glyphOrder;
value = (
.notdef,
NULL,
CR,
space,
u102A0,
u102A1,
u102A2,
u102A3,
u102A4,
u102A5,
u102A6,
u102A7,
u102A8,
u102A9,
u102AA,
u102AB,
u102AC,
u102AD,
u102AE,
u102AF,
u102B0,
u102B1,
u102B2,
u102B3,
u102B4,
u102B5,
u102B6,
u102B7,
u102B8,
u102B9,
u102BA,
u102BB,
u102BC,
u102BD,
u102BE,
u102BF,
u102C0,
u102C1,
u102C2,
u102C3,
u102C4,
u102C5,
u102C6,
u102C7,
u102C8,
u102C9,
u102CA,
u102CB,
u102CC,
u102CD,
u102CE,
u102CF,
u102D0,
uni00A0
);
},
{
name = description;
value = "Designed by Monotype design team.";
},
{
name = license;
value = "This Font Software is licensed under the SIL Open Font License, Version 1.1. This Font Software is distributed on an \"AS IS\" BASIS, WITHOUT WARRANTIES OR CONDITIONS OF ANY KIND, either express or implied. See the SIL Open Font License for the specific language, permissions and limitations governing your use of this Font Software.";
},
{
name = licenseURL;
value = "http://scripts.sil.org/OFL";
},
{
name = vendorID;
value = GOOG;
},
{
name = unicodeRanges;
value = (
0,
1,
57,
121
);
},
{
name = trademark;
value = "Noto is a trademark of Google Inc.";
},
{
name = "Has WWS Names";
value = 1;
},
{
name = versionString;
value = "Version 2.000";
},
{
name = fsType;
value = (
);
},
{
name = codePageRanges;
value = (
1252
);
}
);
date = "2017-01-18 21:02:07 +0000";
designer = "Monotype Design Team";
designerURL = "http://www.monotype.com/studio";
disablesAutomaticAlignment = 1;
disablesNiceNames = 1;
familyName = "Noto Sans Carian";
fontMaster = (
{
alignmentZones = (
"{1069, 15}",
"{714, 15}",
"{500, 15}",
"{0, -15}",
"{-293, -15}"
);
ascender = 1069;
capHeight = 714;
customParameters = (
{
name = typoAscender;
value = 1069;
},
{
name = typoDescender;
value = -293;
},
{
name = typoLineGap;
value = 0;
},
{
name = winAscent;
value = 1069;
},
{
name = winDescent;
value = 293;
},
{
name = hheaAscender;
value = 1069;
},
{

glyphs = (
{
glyphname = .notdef;
lastChange = "2017-01-18 22:43:16 +0000";
layers = (
{
layerId = UUID0;
paths = (
{
closed = 1;
nodes = (
"450 0 LINE",
"450 714 LINE",
"50 714 LINE",
"50 0 LINE"
);
},
{
closed = 1;
nodes = (
"98 666 LINE",
"402 666 LINE",
"402 48 LINE",
"98 48 LINE"
);
}
);
width = 500;
}
);
},
{
glyphname = u102A0;
lastChange = "2017-01-18 22:43:16 +0000";
layers = (
{
layerId = UUID0;
paths = (
{
closed = 1;
nodes = (
"91 0 LINE",
"176 223 LINE",
"459 223 LINE",
"545 0 LINE",
"638 0 LINE",
"360 717 LINE",
"279 717 LINE",
"0 0 LINE"
);
},
{
closed = 1;
nodes = (
"287 517 LINE SMOOTH",
"295 540 OFFCURVE",
"308 583 OFFCURVE",
"318 624 CURVE",
"325 599 OFFCURVE",
"346 533 OFFCURVE",
"352 517 CURVE SMOOTH",
"432 301 LINE",
"206 301 LINE"
);
}
);
width = 639;
}
);
unicode = 102A0;
},
{
glyphname = u102A1;
lastChange = "2017-01-18 22:43:16 +0000";
layers = (
{
layerId = UUID0;
paths = (
{
closed = 1;
nodes = (
"349 0 LINE SMOOTH",
"501 0 OFFCURVE",
"597 73 OFFCURVE",
"597 203 CURVE SMOOTH",
"597 314 OFFCURVE",
"526 359 OFFCURVE",
"437 374 CURVE",
"437 379 LINE",
"524 395 OFFCURVE",
"572 453 OFFCURVE",
"572 537 CURVE SMOOTH",
"572 667 OFFCURVE",
"479 714 OFFCURVE",
"301 714 CURVE SMOOTH",
"98 714 LINE",
"98 0 LINE"
);
},
{
closed = 1;
nodes = (
"188 334 LINE",
"325 334 LINE SMOOTH",
"457 334 OFFCURVE",
"500 285 OFFCURVE",
"500 210 CURVE SMOOTH",
"500 130 OFFCURVE",
"458 77 OFFCURVE",
"332 77 CURVE SMOOTH",
"188 77 LINE"
);
},
{
closed = 1;
nodes = (
"188 637 LINE",
"306 637 LINE SMOOTH",
"426 637 OFFCURVE",
"479 605 OFFCURVE",
"479 527 CURVE SMOOTH",
"479 450 OFFCURVE",
"441 411 OFFCURVE",
"319 411 CURVE SMOOTH",
"188 411 LINE"
);
}
);
width = 650;
}
);
unicode = 102A1;
},
{
glyphname = u102A2;
lastChange = "2017-01-18 22:43:16 +0000";
layers = (
{
layerId = UUID0;
paths = (
{
closed = 1;
nodes = (
"468 -10 OFFCURVE",
"520 -1 OFFCURVE",
"573 19 CURVE",
"573 97 LINE",
"519 81 OFFCURVE",
"464 69 OFFCURVE",
"402 69 CURVE SMOOTH",
"238 69 OFFCURVE",
"156 180 OFFCURVE",
"156 357 CURVE SMOOTH",
"156 536 OFFCURVE",
"250 645 OFFCURVE",
"403 645 CURVE SMOOTH",
"467 645 OFFCURVE",
"521 626 OFFCURVE",
"565 606 CURVE",
"601 682 LINE",
"547 709 OFFCURVE",
"477 724 OFFCURVE",
"404 724 CURVE SMOOTH",
"183 724 OFFCURVE",
"61 574 OFFCURVE",
"61 358 CURVE SMOOTH",
"61 133 OFFCURVE",
"170 -10 OFFCURVE",
"389 -10 CURVE SMOOTH"
);
}
);
width = 632;
}
);
unicode = 102A2;
},
{
glyphname = u102A3;
lastChange = "2017-01-18 22:43:16 +0000";
layers = (
{
layerId = UUID0;
paths = (
{
closed = 1;
nodes = (
"570 0 LINE",
"570 54 LINE",
"344 714 LINE",
"254 714 LINE",
"29 55 LINE",
"29 0 LINE"
);
},
{
closed = 1;
nodes = (
"252 455 LINE SMOOTH",
"271 511 OFFCURVE",
"286 568 OFFCURVE",
"298 616 CURVE",
"309 568 OFFCURVE",
"326 511 OFFCURVE",
"346 451 CURVE SMOOTH",
"472 77 LINE",
"125 77 LINE"
);
}
);
width = 600;
}
);
unicode = 102A3;
},
{
glyphname = u102A4;
lastChange = "2017-01-18 22:43:16 +0000";
layers = (
{
layerId = UUID0;
paths = (
{
closed = 1;
nodes = (
"526 67 LINE",
"188 144 LINE",
"188 351 LINE",
"428 297 LINE",
"445 375 LINE",
"188 432 LINE",
"188 633 LINE",
"509 560 LINE",
"526 637 LINE",
"188 714 LINE",
"98 714 LINE",
"98 0 LINE",
"188 0 LINE",
"188 63 LINE",
"509 -10 LINE"
);
}
);
width = 575;
}
);
unicode = 102A4;
},
{
glyphname = u102A5;
lastChange = "2017-01-18 22:43:16 +0000";
layers = (
{
layerId = UUID0;
paths = (
{
closed = 1;
nodes = (
"188 0 LINE",
"188 351 LINE",
"428 297 LINE",
"445 375 LINE",
"188 432 LINE",
"188 633 LINE",
"509 560 LINE",
"526 637 LINE",
"188 714 LINE",
"98 714 LINE",
"98 0 LINE"
);
}
);
width = 575;
}
);
unicode = 102A5;
},
{
glyphname = u102A6;
lastChange = "2017-01-18 22:43:16 +0000";
layers = (
{
layerId = UUID0;
paths = (
{
closed = 1;
nodes = (
"452 0 LINE",
"452 77 LINE",
"295 77 LINE",
"295 637 LINE",
"452 637 LINE",
"452 714 LINE",
"49 714 LINE",
"49 637 LINE",
"205 637 LINE",
"205 77 LINE",
"49 77 LINE",
"49 0 LINE"
);
}
);
width = 500;
}
);
unicode = 102A6;
},
{
glyphname = u102A7;
lastChange = "2017-01-18 22:43:16 +0000";
layers = (
{
layerId = UUID0;
paths = (
{
closed = 1;
nodes = (
"644 0 LINE",
"644 714 LINE",
"98 714 LINE",
"98 0 LINE"
);
},
{
closed = 1;
nodes = (
"188 334 LINE",
"554 334 LINE",
"554 77 LINE",
"188 77 LINE"
);
},
{
closed = 1;
nodes = (
"188 637 LINE",
"554 637 LINE",
"554 411 LINE",
"188 411 LINE"
);
}
);
width = 741;
}
);
unicode = 102A7;
},
{
glyphname = u102A8;
lastChange = "2017-01-18 22:43:16 +0000";
layers = (
{
layerId = UUID0;
paths = (
{
closed = 1;
nodes = (
"606 -10 OFFCURVE",
"720 137 OFFCURVE",
"720 358 CURVE SMOOTH",
"720 580 OFFCURVE",
"606 725 OFFCURVE",
"392 725 CURVE SMOOTH",
"168 725 OFFCURVE",
"61 578 OFFCURVE",
"61 359 CURVE SMOOTH",
"61 138 OFFCURVE",
"168 -10 OFFCURVE",
"391 -10 CURVE SMOOTH"
);
},
{
closed = 1;
nodes = (
"222 87 OFFCURVE",
"159 186 OFFCURVE",
"153 334 CURVE",
"346 334 LINE",
"346 68 LINE"
);
},
{
closed = 1;
nodes = (
"436 334 LINE",
"627 334 LINE",
"622 185 OFFCURVE",
"561 86 OFFCURVE",
"436 68 CURVE"
);
},
{
closed = 1;
nodes = (
"167 543 OFFCURVE",
"230 628 OFFCURVE",
"346 646 CURVE",
"346 411 LINE",
"155 411 LINE"
);
},
{
closed = 1;
nodes = (
"436 646 LINE",
"552 629 OFFCURVE",
"613 543 OFFCURVE",
"625 411 CURVE",
"436 411 LINE"
);
}
);
width = 781;
}
);
unicode = 102A8;
},
{
glyphname = u102A9;
lastChange = "2017-01-18 22:43:16 +0000";
layers = (
{
layerId = UUID0;
paths = (
{
closed = 1;
nodes = (
"188 0 LINE",
"188 633 LINE",
"509 560 LINE",
"526 637 LINE",
"188 714 LINE",
"98 714 LINE",
"98 0 LINE"
);
}
);
width = 575;
}
);
unicode = 102A9;
},
{
glyphname = u102AA;
lastChange = "2017-01-18 22:43:16 +0000";
layers = (
{
layerId = UUID0;
paths = (
{
closed = 1;
nodes = (
"188 0 LINE",
"188 394 LINE SMOOTH",
"188 467 OFFCURVE",
"183 551 OFFCURVE",
"179 598 CURVE",
"183 598 LINE",
"581 186 LINE",
"671 186 LINE",
"671 714 LINE",
"582 714 LINE",
"582 501 LINE SMOOTH",
"582 437 OFFCURVE",
"586 331 OFFCURVE",
"588 299 CURVE",
"584 299 LINE",
"189 714 LINE",
"98 714 LINE",
"98 0 LINE"
);
}
);
width = 769;
}
);
unicode = 102AA;
},
{
glyphname = u102AB;
lastChange = "2017-01-18 22:43:16 +0000";
layers = (
{
layerId = UUID0;
paths = (
{
closed = 1;
nodes = (
"606 -10 OFFCURVE",
"720 137 OFFCURVE",
"720 358 CURVE SMOOTH",
"720 580 OFFCURVE",
"606 725 OFFCURVE",
"392 725 CURVE SMOOTH",
"168 725 OFFCURVE",
"61 578 OFFCURVE",
"61 359 CURVE SMOOTH",
"61 138 OFFCURVE",
"168 -10 OFFCURVE",
"391 -10 CURVE SMOOTH"
);
},
{
closed = 1;
nodes = (
"230 68 OFFCURVE",
"156 178 OFFCURVE",
"156 358 CURVE SMOOTH",
"156 538 OFFCURVE",
"230 646 OFFCURVE",
"392 646 CURVE SMOOTH",
"553 646 OFFCURVE",
"625 538 OFFCURVE",
"625 358 CURVE SMOOTH",
"625 178 OFFCURVE",
"553 68 OFFCURVE",
"391 68 CURVE SMOOTH"
);
}
);
width = 781;
}
);
unicode = 102AB;
},
{
glyphname = u102AC;
lastChange = "2017-01-18 22:43:16 +0000";
layers = (
{
layerId = UUID0;
paths = (
{
closed = 1;
nodes = (
"188 0 LINE",
"188 465 LINE SMOOTH",
"188 603 OFFCURVE",
"250 646 OFFCURVE",
"363 646 CURVE SMOOTH",
"524 646 OFFCURVE",
"572 543 OFFCURVE",
"572 426 CURVE SMOOTH",
"572 405 LINE",
"662 405 LINE",
"662 426 LINE SMOOTH",
"662 629 OFFCURVE",
"557 725 OFFCURVE",
"363 725 CURVE SMOOTH",
"204 725 OFFCURVE",
"98 646 OFFCURVE",
"98 488 CURVE SMOOTH",
"98 0 LINE"
);
}
);
width = 711;
}
);
unicode = 102AC;
},
{
glyphname = u102AD;
lastChange = "2017-01-18 22:43:16 +0000";
layers = (
{
layerId = UUID0;
paths = (
{
closed = 1;
nodes = (
"397 0 LINE",
"397 185 LINE",
"557 201 OFFCURVE",
"646 305 OFFCURVE",
"646 454 CURVE SMOOTH",
"646 618 OFFCURVE",
"540 725 OFFCURVE",
"354 725 CURVE SMOOTH",
"160 725 OFFCURVE",
"61 607 OFFCURVE",
"61 455 CURVE SMOOTH",
"61 313 OFFCURVE",
"144 201 OFFCURVE",
"310 185 CURVE",
"310 0 LINE"
);
},
{
closed = 1;
nodes = (
"212 262 OFFCURVE",
"156 342 OFFCURVE",
"156 454 CURVE SMOOTH",
"156 568 OFFCURVE",
"213 646 OFFCURVE",
"354 646 CURVE SMOOTH",
"494 646 OFFCURVE",
"551 568 OFFCURVE",
"551 454 CURVE SMOOTH",
"551 341 OFFCURVE",
"493 262 OFFCURVE",
"353 262 CURVE SMOOTH"
);
}
);
width = 707;
}
);
unicode = 102AD;
},
{
glyphname = u102AE;
lastChange = "2017-01-18 22:43:16 +0000";
layers = (
{
layerId = UUID0;
paths = (
{
closed = 1;
nodes = (
"520 0 LINE",
"520 714 LINE",
"430 714 LINE",
"430 590 LINE",
"333 590 LINE SMOOTH",
"141 590 OFFCURVE",
"61 508 OFFCURVE",
"61 377 CURVE SMOOTH",
"61 257 OFFCURVE",
"131 154 OFFCURVE",
"349 154 CURVE SMOOTH",
"430 154 LINE",
"430 0 LINE"
);
},
{
closed = 1;
nodes = (
"218 231 OFFCURVE",
"156 272 OFFCURVE",
"156 377 CURVE SMOOTH",
"156 469 OFFCURVE",
"211 513 OFFCURVE",
"341 513 CURVE SMOOTH",
"430 513 LINE",
"430 231 LINE",
"358 231 LINE SMOOTH"
);
}
);
width = 617;
}
);
unicode = 102AE;
},
{
glyphname = u102AF;
lastChange = "2017-01-18 22:43:16 +0000";
layers = (
{
layerId = UUID0;
paths = (
{
closed = 1;
nodes = (
"188 0 LINE",
"188 191 LINE",
"359 66 LINE",
"405 129 LINE",
"203 277 LINE",
"270 277 LINE SMOOTH",
"483 277 OFFCURVE",
"556 386 OFFCURVE",
"556 504 CURVE SMOOTH",
"556 637 OFFCURVE",
"474 714 OFFCURVE",
"287 714 CURVE SMOOTH",
"98 714 LINE",
"98 0 LINE"
);
},
{
closed = 1;
nodes = (
"188 637 LINE",
"278 637 LINE SMOOTH",
"404 637 OFFCURVE",
"461 591 OFFCURVE",
"461 500 CURVE SMOOTH",
"461 395 OFFCURVE",
"396 354 OFFCURVE",
"259 354 CURVE SMOOTH",
"188 354 LINE"
);
}
);
width = 617;
}
);
unicode = 102AF;
},
{
glyphname = u102B0;
lastChange = "2017-01-18 22:43:16 +0000";
layers = (
{
layerId = UUID0;
paths = (
{
closed = 1;
nodes = (
"110 0 LINE",
"219 434 LINE SMOOTH",
"235 496 OFFCURVE",
"247 553 OFFCURVE",
"253 604 CURVE",
"260 551 OFFCURVE",
"275 487 OFFCURVE",
"292 428 CURVE SMOOTH",
"416 0 LINE",
"512 0 LINE",
"642 432 LINE SMOOTH",
"661 494 OFFCURVE",
"673 558 OFFCURVE",
"681 604 CURVE",
"687 554 OFFCURVE",
"699 496 OFFCURVE",
"715 433 CURVE SMOOTH",
"824 0 LINE",
"919 0 LINE",
"729 714 LINE",
"636 714 LINE",
"500 249 LINE SMOOTH",
"483 192 OFFCURVE",
"466 126 OFFCURVE",
"463 108 CURVE",
"461 126 OFFCURVE",
"446 191 OFFCURVE",
"429 252 CURVE SMOOTH",
"297 714 LINE",
"204 714 LINE",
"146 500 OFFCURVE",
"71 214 OFFCURVE",
"15 0 CURVE"
);
}
);
width = 934;
}
);
unicode = 102B0;
},
{
glyphname = u102B1;
lastChange = "2017-01-18 22:43:16 +0000";
layers = (
{
layerId = UUID0;
paths = (
{
closed = 1;
nodes = (
"328 0 LINE",
"328 637 LINE",
"550 637 LINE",
"550 714 LINE",
"15 714 LINE",
"15 637 LINE",
"238 637 LINE",
"238 0 LINE"
);
}
);
width = 564;
}
);
unicode = 102B1;
},
{
glyphname = u102B2;
lastChange = "2017-01-18 22:43:16 +0000";
layers = (
{
layerId = UUID0;
paths = (
{
closed = 1;
nodes = (
"347 0 LINE",
"347 277 LINE",
"585 714 LINE",
"489 714 LINE",
"303 363 LINE",
"118 714 LINE",
"20 714 LINE",
"257 273 LINE",
"257 0 LINE"
);
}
);
width = 605;
}
);
unicode = 102B2;
},
{
glyphname = u102B3;
lastChange = "2017-01-18 22:43:16 +0000";
layers = (
{
layerId = UUID0;
paths = (
{
closed = 1;
nodes = (
"399 0 LINE",
"399 98 LINE",
"558 114 OFFCURVE",
"648 217 OFFCURVE",
"648 366 CURVE SMOOTH",
"648 516 OFFCURVE",
"557 619 OFFCURVE",
"399 635 CURVE",
"399 714 LINE",
"310 714 LINE",
"310 635 LINE",
"145 618 OFFCURVE",
"61 507 OFFCURVE",
"61 367 CURVE SMOOTH",
"61 226 OFFCURVE",
"144 113 OFFCURVE",
"310 97 CURVE",
"310 0 LINE"
);
},
{
closed = 1;
nodes = (
"200 189 OFFCURVE",
"154 266 OFFCURVE",
"154 366 CURVE SMOOTH",
"154 467 OFFCURVE",
"201 542 OFFCURVE",
"310 558 CURVE",
"310 174 LINE"
);
},
{
closed = 1;
nodes = (
"399 558 LINE",
"507 542 OFFCURVE",
"555 467 OFFCURVE",
"555 366 CURVE SMOOTH",
"555 266 OFFCURVE",
"507 191 OFFCURVE",
"399 174 CURVE"
);
}
);
width = 709;
}
);
unicode = 102B3;
},
{
glyphname = u102B4;
lastChange = "2017-01-18 22:43:16 +0000";
layers = (
{
layerId = UUID0;
paths = (
{
closed = 1;
nodes = (
"100 0 LINE",
"292 310 LINE",
"481 0 LINE",
"583 0 LINE",
"345 374 LINE",
"566 714 LINE",
"471 714 LINE",
"295 434 LINE",
"120 714 LINE",
"20 714 LINE",
"242 372 LINE",
"5 0 LINE"
);
}
);
width = 588;
}
);
unicode = 102B4;
},
{
glyphname = u102B5;
lastChange = "2017-01-18 22:43:16 +0000";
layers = (
{
layerId = UUID0;
paths = (
{
closed = 1;
nodes = (
"381 0 LINE",
"381 272 LINE",
"654 714 LINE",
"562 714 LINE",
"449 525 LINE SMOOTH",
"426 486 OFFCURVE",
"403 446 OFFCURVE",
"381 406 CURVE",
"381 714 LINE",
"292 714 LINE",
"292 408 LINE",
"272 443 OFFCURVE",
"252 479 OFFCURVE",
"231 514 CURVE SMOOTH",
"111 714 LINE",
"20 714 LINE",
"292 272 LINE",
"292 0 LINE"
);
}
);
width = 673;
}
);
unicode = 102B5;
},
{
glyphname = u102B6;
lastChange = "2017-01-18 22:43:16 +0000";
layers = (
{
layerId = UUID0;
paths = (
{
closed = 1;
nodes = (
"322 0 LINE",
"322 72 LINE",
"198 161 OFFCURVE",
"155 268 OFFCURVE",
"155 401 CURVE SMOOTH",
"155 553 OFFCURVE",
"227 646 OFFCURVE",
"387 646 CURVE SMOOTH",
"548 646 OFFCURVE",
"621 553 OFFCURVE",
"621 401 CURVE SMOOTH",
"621 269 OFFCURVE",
"577 160 OFFCURVE",
"453 72 CURVE",
"453 0 LINE",
"741 0 LINE",
"741 77 LINE",
"564 77 LINE",
"649 142 OFFCURVE",
"715 255 OFFCURVE",
"715 405 CURVE SMOOTH",
"715 601 OFFCURVE",
"599 725 OFFCURVE",
"387 725 CURVE SMOOTH",
"178 725 OFFCURVE",
"60 600 OFFCURVE",
"60 404 CURVE SMOOTH",
"60 255 OFFCURVE",
"127 142 OFFCURVE",
"212 77 CURVE",
"34 77 LINE",
"34 0 LINE"
);
}
);
width = 775;
}
);
unicode = 102B6;
},
{
glyphname = u102B7;
lastChange = "2017-01-18 22:43:16 +0000";
layers = (
{
layerId = UUID0;
paths = (
{
closed = 1;
nodes = (
"919 0 LINE",
"729 714 LINE",
"636 714 LINE",
"500 249 LINE SMOOTH",
"483 192 OFFCURVE",
"466 126 OFFCURVE",
"463 108 CURVE",
"461 126 OFFCURVE",
"446 191 OFFCURVE",
"429 252 CURVE SMOOTH",
"297 714 LINE",
"204 714 LINE",
"146 500 OFFCURVE",
"71 214 OFFCURVE",
"15 0 CURVE"
);
},
{
closed = 1;
nodes = (
"219 434 LINE SMOOTH",
"235 496 OFFCURVE",
"247 553 OFFCURVE",
"253 604 CURVE",
"260 551 OFFCURVE",
"275 487 OFFCURVE",
"292 428 CURVE SMOOTH",
"393 77 LINE",
"129 77 LINE"
);
},
{
closed = 1;
nodes = (
"642 432 LINE SMOOTH",
"661 494 OFFCURVE",
"673 558 OFFCURVE",
"681 604 CURVE",
"687 554 OFFCURVE",
"699 496 OFFCURVE",
"715 433 CURVE SMOOTH",
"805 77 LINE",
"535 77 LINE"
);
}
);
width = 934;
}
);
unicode = 102B7;
},
{
glyphname = u102B8;
lastChange = "2017-01-18 22:43:16 +0000";
layers = (
{
layerId = UUID0;
paths = (
{
closed = 1;
nodes = (
"606 -10 OFFCURVE",
"720 137 OFFCURVE",
"720 358 CURVE SMOOTH",
"720 580 OFFCURVE",
"606 725 OFFCURVE",
"392 725 CURVE SMOOTH",
"168 725 OFFCURVE",
"61 578 OFFCURVE",
"61 359 CURVE SMOOTH",
"61 138 OFFCURVE",
"168 -10 OFFCURVE",
"391 -10 CURVE SMOOTH"
);
},
{
closed = 1;
nodes = (
"215 85 OFFCURVE",
"152 196 OFFCURVE",
"152 358 CURVE SMOOTH",
"152 520 OFFCURVE",
"215 628 OFFCURVE",
"345 649 CURVE",
"345 64 LINE"
);
},
{
closed = 1;
nodes = (
"435 650 LINE",
"567 631 OFFCURVE",
"629 521 OFFCURVE",
"629 358 CURVE SMOOTH",
"629 195 OFFCURVE",
"567 84 OFFCURVE",
"435 64 CURVE"
);
}
);
width = 781;
}
);
unicode = 102B8;
},
{
glyphname = u102B9;
lastChange = "2017-01-18 22:43:16 +0000";
layers = (
{
layerId = UUID0;
paths = (
{
closed = 1;
nodes = (
"501 0 LINE",
"501 714 LINE",
"413 714 LINE SMOOTH",
"198 714 OFFCURVE",
"61 593 OFFCURVE",
"61 364 CURVE SMOOTH",
"61 123 OFFCURVE",
"199 0 OFFCURVE",
"434 0 CURVE SMOOTH"
);
},
{
closed = 1;
nodes = (
"250 89 OFFCURVE",
"165 175 OFFCURVE",
"156 334 CURVE",
"411 334 LINE",
"411 78 LINE"
);
},
{
closed = 1;
nodes = (
"174 561 OFFCURVE",
"263 632 OFFCURVE",
"411 637 CURVE",
"411 411 LINE",
"158 411 LINE"
);
}
);
width = 599;
}
);
unicode = 102B9;
},
{
glyphname = u102BA;
lastChange = "2017-01-18 22:43:16 +0000";
layers = (
{
layerId = UUID0;
paths = (
{
closed = 1;
nodes = (
"523 260 LINE",
"523 714 LINE",
"68 714 LINE",
"68 260 LINE"
);
},
{
closed = 1;
nodes = (
"158 637 LINE",
"434 637 LINE",
"434 337 LINE",
"158 337 LINE"
);
}
);
width = 592;
}
);
unicode = 102BA;
},
{
glyphname = u102BB;
lastChange = "2017-01-18 22:43:16 +0000";
layers = (
{
layerId = UUID0;
paths = (
{
closed = 1;
nodes = (
"341 0 LINE",
"341 260 LINE",
"523 260 LINE",
"523 714 LINE",
"68 714 LINE",
"68 260 LINE",
"251 260 LINE",
"251 0 LINE"
);
},
{
closed = 1;
nodes = (
"158 637 LINE",
"434 637 LINE",
"434 337 LINE",
"158 337 LINE"
);
}
);
width = 592;
}
);
unicode = 102BB;
},
{
glyphname = u102BC;
lastChange = "2017-01-18 22:43:16 +0000";
layers = (
{
layerId = UUID0;
paths = (
{
closed = 1;
nodes = (
"344 0 LINE",
"570 660 LINE",
"570 714 LINE",
"29 714 LINE",
"29 659 LINE",
"254 0 LINE"
);
},
{
closed = 1;
nodes = (
"286 146 OFFCURVE",
"271 203 OFFCURVE",
"252 259 CURVE SMOOTH",
"125 637 LINE",
"471 637 LINE",
"346 263 LINE SMOOTH",
"326 203 OFFCURVE",
"309 146 OFFCURVE",
"298 98 CURVE"
);
}
);
width = 600;
}
);
unicode = 102BC;
},
{
glyphname = u102BD;
lastChange = "2017-01-18 22:43:16 +0000";
layers = (
{
layerId = UUID0;
paths = (
{
closed = 1;
nodes = (
"339 0 LINE",
"339 313 LINE",
"560 660 LINE",
"560 714 LINE",
"29 714 LINE",
"29 659 LINE",
"250 313 LINE",
"250 0 LINE"
);
},
{
closed = 1;
nodes = (
"141 637 LINE",
"448 637 LINE",
"294 391 LINE"
);
}
);
width = 589;
}
);
unicode = 102BD;
},
{
glyphname = u102BE;
lastChange = "2017-01-18 22:43:16 +0000";
layers = (
{
layerId = UUID0;
paths = (
{
closed = 1;
nodes = (
"332 636 LINE",
"598 365 LINE",
"655 420 LINE",
"368 714 LINE",
"297 714 LINE",
"10 420 LINE",
"67 365 LINE"
);
},
{
closed = 1;
nodes = (
"332 262 LINE",
"598 -10 LINE",
"655 46 LINE",
"368 339 LINE",
"297 339 LINE",
"10 46 LINE",
"67 -10 LINE"
);
}
);
width = 665;
}
);
unicode = 102BE;
},
{
glyphname = u102BF;
lastChange = "2017-01-18 22:43:16 +0000";
layers = (
{
layerId = UUID0;
paths = (
{
closed = 1;
nodes = (
"188 0 LINE",
"188 637 LINE",
"414 637 LINE",
"414 0 LINE",
"504 0 LINE",
"504 637 LINE",
"730 637 LINE",
"730 0 LINE",
"820 0 LINE",
"820 714 LINE",
"98 714 LINE",
"98 0 LINE"
);
}
);
width = 918;
}
);
unicode = 102BF;
},
{
glyphname = u102C0;
lastChange = "2017-01-18 22:43:16 +0000";
layers = (
{
layerId = UUID0;
paths = (
{
closed = 1;
nodes = (
"598 0 LINE",
"360 374 LINE",
"581 714 LINE",
"35 714 LINE",
"257 372 LINE",
"20 0 LINE"
);
},
{
closed = 1;
nodes = (
"307 310 LINE",
"447 77 LINE",
"164 77 LINE"
);
},
{
closed = 1;
nodes = (
"185 637 LINE",
"435 637 LINE",
"310 434 LINE"
);
}
);
width = 617;
}
);
unicode = 102C0;
},
{
glyphname = u102C1;
lastChange = "2017-01-18 22:43:16 +0000";
layers = (
{
layerId = UUID0;
paths = (
{
closed = 1;
nodes = (
"115 0 LINE",
"307 310 LINE",
"496 0 LINE",
"598 0 LINE",
"360 374 LINE",
"581 714 LINE",
"35 714 LINE",
"257 372 LINE",
"20 0 LINE"
);
},
{
closed = 1;
nodes = (
"185 637 LINE",
"435 637 LINE",
"310 434 LINE"
);
}
);
width = 617;
}
);
unicode = 102C1;
},
{
glyphname = u102C2;
lastChange = "2017-01-18 22:43:16 +0000";
layers = (
{
layerId = UUID0;
paths = (
{
closed = 1;
nodes = (
"715 67 LINE",
"583 106 OFFCURVE",
"510 188 OFFCURVE",
"510 355 CURVE SMOOTH",
"510 520 OFFCURVE",
"583 609 OFFCURVE",
"715 646 CURVE",
"699 724 LINE",
"514 684 OFFCURVE",
"415 555 OFFCURVE",
"415 355 CURVE SMOOTH",
"415 151 OFFCURVE",
"523 28 OFFCURVE",
"699 -10 CURVE"
);
},
{
closed = 1;
nodes = (
"231 28 OFFCURVE",
"339 151 OFFCURVE",
"339 355 CURVE SMOOTH",
"339 555 OFFCURVE",
"240 684 OFFCURVE",
"55 724 CURVE",
"39 646 LINE",
"171 609 OFFCURVE",
"244 520 OFFCURVE",
"244 355 CURVE SMOOTH",
"244 188 OFFCURVE",
"171 106 OFFCURVE",
"39 67 CURVE",
"55 -10 LINE"
);
}
);
width = 754;
}
);
unicode = 102C2;
},
{
glyphname = u102C3;
lastChange = "2017-01-18 22:43:16 +0000";
layers = (
{
layerId = UUID0;
paths = (
{
closed = 1;
nodes = (
"339 0 LINE SMOOTH",
"499 0 OFFCURVE",
"585 108 OFFCURVE",
"585 233 CURVE SMOOTH",
"585 357 OFFCURVE",
"499 465 OFFCURVE",
"339 465 CURVE SMOOTH",
"316 465 LINE",
"316 388 LINE",
"336 388 LINE SMOOTH",
"450 388 OFFCURVE",
"491 305 OFFCURVE",
"491 233 CURVE SMOOTH",
"491 160 OFFCURVE",
"450 77 OFFCURVE",
"336 77 CURVE SMOOTH",
"316 77 LINE",
"316 0 LINE"
);
},
{
closed = 1;
nodes = (
"330 249 LINE",
"330 326 LINE",
"311 326 LINE SMOOTH",
"197 326 OFFCURVE",
"156 409 OFFCURVE",
"156 480 CURVE SMOOTH",
"156 554 OFFCURVE",
"197 637 OFFCURVE",
"311 637 CURVE SMOOTH",
"330 637 LINE",
"330 714 LINE",
"308 714 LINE SMOOTH",
"148 714 OFFCURVE",
"61 605 OFFCURVE",
"61 481 CURVE SMOOTH",
"61 357 OFFCURVE",
"148 249 OFFCURVE",
"308 249 CURVE SMOOTH"
);
}
);
width = 646;
}
);
unicode = 102C3;
},
{
glyphname = u102C4;
lastChange = "2017-01-18 22:43:16 +0000";
layers = (
{
layerId = UUID0;
paths = (
{
closed = 1;
nodes = (
"204 0 LINE",
"396 310 LINE",
"585 0 LINE",
"687 0 LINE",
"449 374 LINE",
"604 611 LINE",
"718 425 LINE",
"788 464 LINE",
"629 714 LINE",
"575 714 LINE",
"399 434 LINE",
"224 714 LINE",
"168 714 LINE",
"10 464 LINE",
"79 425 LINE",
"192 608 LINE",
"346 372 LINE",
"109 0 LINE"
);
}
);
width = 797;
}
);
unicode = 102C4;
},
{
glyphname = u102C5;
lastChange = "2017-01-18 22:43:16 +0000";
layers = (
{
layerId = UUID0;
paths = (
{
closed = 1;
nodes = (
"188 0 LINE",
"188 334 LINE",
"407 334 LINE",
"407 0 LINE",
"497 0 LINE",
"497 334 LINE",
"717 334 LINE",
"717 0 LINE",
"807 0 LINE",
"807 714 LINE",
"717 714 LINE",
"717 411 LINE",
"497 411 LINE",
"497 714 LINE",
"407 714 LINE",
"407 411 LINE",
"188 411 LINE",
"188 714 LINE",
"98 714 LINE",
"98 0 LINE"
);
}
);
width = 904;
}
);
unicode = 102C5;
},
{
glyphname = u102C6;
lastChange = "2017-01-18 22:43:16 +0000";
layers = (
{
layerId = UUID0;
paths = (
{
closed = 1;
nodes = (
"616 -10 OFFCURVE",
"711 48 OFFCURVE",
"746 143 CURVE",
"672 183 LINE",
"643 117 OFFCURVE",
"586 69 OFFCURVE",
"509 69 CURVE SMOOTH",
"427 69 OFFCURVE",
"359 122 OFFCURVE",
"359 236 CURVE SMOOTH",
"359 313 OFFCURVE",
"402 377 OFFCURVE",
"460 400 CURVE",
"472 451 LINE",
"254 724 LINE",
"190 675 LINE",
"372 450 LINE",
"29 450 LINE",
"29 374 LINE",
"314 374 LINE",
"284 330 OFFCURVE",
"265 277 OFFCURVE",
"265 221 CURVE SMOOTH",
"265 70 OFFCURVE",
"374 -10 OFFCURVE",
"509 -10 CURVE SMOOTH"
);
}
);
width = 794;
}
);
unicode = 102C6;
},
{
glyphname = u102C7;
lastChange = "2017-01-18 22:43:16 +0000";
layers = (
{
layerId = UUID0;
paths = (
{
closed = 1;
nodes = (
"387 0 LINE",
"387 593 LINE",
"607 365 LINE",
"665 421 LINE",
"377 714 LINE",
"307 714 LINE",
"20 421 LINE",
"77 365 LINE",
"297 594 LINE",
"297 0 LINE"
);
}
);
width = 684;
}
);
unicode = 102C7;
},
{
glyphname = u102C8;
lastChange = "2017-01-18 22:43:16 +0000";
layers = (
{
layerId = UUID0;
paths = (
{
closed = 1;
nodes = (
"641 313 LINE",
"641 714 LINE",
"551 714 LINE",
"551 313 LINE"
);
},
{
closed = 1;
nodes = (
"414 0 LINE",
"414 401 LINE",
"324 401 LINE",
"324 0 LINE"
);
},
{
closed = 1;
nodes = (
"188 313 LINE",
"188 714 LINE",
"98 714 LINE",
"98 313 LINE"
);
}
);
width = 738;
}
);
unicode = 102C8;
},
{
glyphname = u102C9;
lastChange = "2017-01-18 22:43:16 +0000";
layers = (
{
layerId = UUID0;
paths = (
{
closed = 1;
nodes = (
"507 -10 OFFCURVE",
"581 105 OFFCURVE",
"581 220 CURVE SMOOTH",
"581 350 OFFCURVE",
"482 453 OFFCURVE",
"341 453 CURVE SMOOTH",
"308 453 OFFCURVE",
"273 447 OFFCURVE",
"236 435 CURVE",
"261 361 LINE",
"280 369 OFFCURVE",
"303 374 OFFCURVE",
"326 374 CURVE SMOOTH",
"402 374 OFFCURVE",
"486 337 OFFCURVE",
"486 220 CURVE SMOOTH",
"486 129 OFFCURVE",
"442 69 OFFCURVE",
"335 69 CURVE SMOOTH",
"249 69 OFFCURVE",
"156 128 OFFCURVE",
"156 324 CURVE SMOOTH",
"156 544 OFFCURVE",
"279 637 OFFCURVE",
"431 637 CURVE SMOOTH",
"497 637 LINE",
"497 714 LINE",
"421 714 LINE SMOOTH",
"221 714 OFFCURVE",
"61 566 OFFCURVE",
"61 324 CURVE SMOOTH",
"61 93 OFFCURVE",
"166 -10 OFFCURVE",
"336 -10 CURVE SMOOTH"
);
}
);
width = 642;
}
);
unicode = 102C9;
},
{
glyphname = u102CA;
lastChange = "2017-01-18 22:43:16 +0000";
layers = (
{
layerId = UUID0;
paths = (
{
closed = 1;
nodes = (
"61 0 LINE SMOOTH",
"458 0 OFFCURVE",
"696 272 OFFCURVE",
"696 549 CURVE SMOOTH",
"696 607 OFFCURVE",
"686 666 OFFCURVE",
"667 724 CURVE",
"575 709 LINE",
"591 657 OFFCURVE",
"602 602 OFFCURVE",
"602 546 CURVE SMOOTH",
"602 389 OFFCURVE",
"525 228 OFFCURVE",
"271 114 CURVE",
"325 173 OFFCURVE",
"363 273 OFFCURVE",
"363 385 CURVE SMOOTH",
"363 532 OFFCURVE",
"314 646 OFFCURVE",
"204 724 CURVE",
"154 653 LINE",
"228 595 OFFCURVE",
"269 500 OFFCURVE",
"269 380 CURVE SMOOTH",
"269 212 OFFCURVE",
"172 77 OFFCURVE",
"39 77 CURVE",
"39 0 LINE"
);
}
);
width = 754;
}
);
unicode = 102CA;
},
{
glyphname = u102CB;
lastChange = "2017-01-18 22:43:16 +0000";
layers = (
{
layerId = UUID0;
paths = (
{
closed = 1;
nodes = (
"314 67 OFFCURVE",
"363 182 OFFCURVE",
"363 329 CURVE SMOOTH",
"363 441 OFFCURVE",
"325 541 OFFCURVE",
"271 600 CURVE",
"525 486 OFFCURVE",
"602 325 OFFCURVE",
"602 167 CURVE SMOOTH",
"602 112 OFFCURVE",
"591 57 OFFCURVE",
"575 5 CURVE",
"667 -10 LINE",
"686 48 OFFCURVE",
"696 107 OFFCURVE",
"696 165 CURVE SMOOTH",
"696 442 OFFCURVE",
"458 714 OFFCURVE",
"61 714 CURVE SMOOTH",
"39 714 LINE",
"39 637 LINE",
"172 637 OFFCURVE",
"269 501 OFFCURVE",
"269 334 CURVE SMOOTH",
"269 214 OFFCURVE",
"228 119 OFFCURVE",
"154 61 CURVE",
"204 -10 LINE"
);
}
);
width = 754;
}
);
unicode = 102CB;
},
{
glyphname = u102CC;
lastChange = "2017-01-18 22:43:16 +0000";
layers = (
{
layerId = UUID0;
paths = (
{
closed = 1;
nodes = (
"516 0 LINE",
"498 89 OFFCURVE",
"485 180 OFFCURVE",
"480 271 CURVE",
"504 276 OFFCURVE",
"527 283 OFFCURVE",
"548 291 CURVE",
"548 368 LINE",
"525 360 OFFCURVE",
"502 354 OFFCURVE",
"478 348 CURVE",
"478 367 LINE SMOOTH",
"478 481 OFFCURVE",
"489 597 OFFCURVE",
"516 714 CURVE",
"421 714 LINE",
"395 599 OFFCURVE",
"383 484 OFFCURVE",
"383 367 CURVE SMOOTH",
"383 332 LINE",
"356 329 OFFCURVE",
"329 327 OFFCURVE",
"303 327 CURVE SMOOTH",
"212 327 OFFCURVE",
"168 365 OFFCURVE",
"168 442 CURVE SMOOTH",
"168 714 LINE",
"78 714 LINE",
"78 429 LINE SMOOTH",
"78 312 OFFCURVE",
"160 248 OFFCURVE",
"294 248 CURVE SMOOTH",
"324 248 OFFCURVE",
"355 250 OFFCURVE",
"387 254 CURVE",
"392 170 OFFCURVE",
"403 85 OFFCURVE",
"421 0 CURVE"
);
}
);
width = 607;
}
);
unicode = 102CC;
},
{
glyphname = u102CD;
lastChange = "2017-01-18 22:43:16 +0000";
layers = (
{
layerId = UUID0;
paths = (
{
closed = 1;
nodes = (
"188 0 LINE",
"188 293 LINE",
"265 266 OFFCURVE",
"327 248 OFFCURVE",
"409 248 CURVE SMOOTH",
"543 248 OFFCURVE",
"619 312 OFFCURVE",
"619 429 CURVE SMOOTH",
"619 714 LINE",
"529 714 LINE",
"529 442 LINE SMOOTH",
"529 365 OFFCURVE",
"491 327 OFFCURVE",
"400 327 CURVE SMOOTH",
"321 327 OFFCURVE",
"267 342 OFFCURVE",
"188 368 CURVE",
"188 714 LINE",
"98 714 LINE",
"98 0 LINE"
);
}
);
width = 697;
}
);
unicode = 102CD;
},
{
glyphname = u102CE;
lastChange = "2017-01-18 22:43:16 +0000";
layers = (
{
layerId = UUID0;
paths = (
{
closed = 1;
nodes = (
"101 0 LINE",
"297 517 LINE SMOOTH",
"306 540 OFFCURVE",
"318 583 OFFCURVE",
"328 624 CURVE",
"335 599 OFFCURVE",
"356 533 OFFCURVE",
"362 517 CURVE SMOOTH",
"555 0 LINE",
"648 0 LINE",
"370 717 LINE",
"289 717 LINE",
"10 0 LINE"
);
},
{
closed = 1;
nodes = (
"467 90 LINE",
"467 166 LINE",
"188 166 LINE",
"188 90 LINE"
);
}
);
width = 658;
}
);
unicode = 102CE;
},
{
glyphname = u102CF;
lastChange = "2017-01-18 22:43:16 +0000";
layers = (
{
layerId = UUID0;
paths = (
{
closed = 1;
nodes = (
"188 0 LINE",
"188 334 LINE",
"554 334 LINE",
"554 0 LINE",
"644 0 LINE",
"644 714 LINE",
"554 714 LINE",
"554 411 LINE",
"188 411 LINE",
"188 714 LINE",
"98 714 LINE",
"98 0 LINE"
);
}
);
width = 741;
}
);
unicode = 102CF;
},
{
glyphname = u102D0;
lastChange = "2017-01-18 22:43:16 +0000";
layers = (
{
layerId = UUID0;
paths = (
{
closed = 1;
nodes = (
"417 0 LINE",
"417 333 LINE",
"646 333 LINE",
"646 714 LINE",
"556 714 LINE",
"556 410 LINE",
"417 410 LINE",
"417 714 LINE",
"328 714 LINE",
"328 410 LINE",
"188 410 LINE",
"188 714 LINE",
"98 714 LINE",
"98 333 LINE",
"328 333 LINE",
"328 0 LINE"
);
}
);
width = 743;
}
);
unicode = 102D0;
},
